<svg xmlns="http://www.w3.org/2000/svg" xmlns:xlink="http://www.w3.org/1999/xlink" viewBox="0 0 524.87 548.24"><defs><style>.cls-1{isolation:isolate;}.cls-2{mix-blend-mode:multiply;opacity:0.8;fill:url(#radial-gradient);}.cls-3{fill:#010101;}.cls-4{fill:#fff;}</style><radialGradient id="radial-gradient" cx="481.97" cy="308.33" r="263.75" gradientTransform="translate(-217.14 -24.15)" gradientUnits="userSpaceOnUse"><stop offset="0" stop-color="#1c1953"/><stop offset="0.37" stop-color="#7e7c9d" stop-opacity="0.57"/><stop offset="0.78" stop-color="#dcdbe4" stop-opacity="0.16"/><stop offset="1" stop-color="#fff" stop-opacity="0"/></radialGradient></defs><g class="cls-1"><g id="Layer_1" data-name="Layer 1"><ellipse class="cls-2" cx="262.44" cy="284.35" rx="262.44" ry="263.89"/><path class="cls-3" d="M238.76,289V117.89c0-51.64,42-93.89,93.37-93.89H502.34c51.35,0,93.37,42.25,93.37,93.89V289c0,51.64-42,93.89-93.37,93.89H445.12l-30-7.35-25.81,7.35H332.13C280.78,382.93,238.76,340.68,238.76,289Z" transform="translate(-219.13 -24)"/><path class="cls-4" d="M486.71,261.23l7.91-51.87h-49.5V175.69c0-14.19,6.92-28,29.09-28h22.5V103.5a273.29,273.29,0,0,0-39.95-3.5c-40.76,0-67.41,24.84-67.41,69.82v39.54H344v51.87h45.32v121.7h55.77V261.23Z" transform="translate(-219.13 -24)"/></g></g></svg>