<svg xmlns="http://www.w3.org/2000/svg" xmlns:xlink="http://www.w3.org/1999/xlink" viewBox="0 0 552 552"><defs><style>.cls-1{isolation:isolate;}.cls-2{mix-blend-mode:multiply;opacity:0.8;fill:url(#radial-gradient);}.cls-3{fill:#010101;}.cls-4{fill:#fff;}</style><radialGradient id="radial-gradient" cx="276" cy="276" r="276" gradientUnits="userSpaceOnUse"><stop offset="0" stop-color="#1c1953"/><stop offset="0.37" stop-color="#7e7c9d" stop-opacity="0.57"/><stop offset="0.78" stop-color="#dcdbe4" stop-opacity="0.16"/><stop offset="1" stop-color="#fff" stop-opacity="0"/></radialGradient></defs><g class="cls-1"><g id="Layer_1" data-name="Layer 1"><circle class="cls-2" cx="276" cy="276" r="276"/><rect class="cls-3" x="236.59" y="24.66" width="359.74" height="359.74" rx="87.1" transform="translate(428.65 -227.93) rotate(90)"/><path class="cls-4" d="M472.29,136.74a12.37,12.37,0,1,0,12.37,12.36A12.36,12.36,0,0,0,472.29,136.74Z" transform="translate(-192.34 -16)"/><path class="cls-4" d="M417.33,152.59a51.94,51.94,0,1,0,51.93,51.94A52,52,0,0,0,417.33,152.59Zm0,85.21a33.27,33.27,0,1,1,33.26-33.27A33.3,33.3,0,0,1,417.33,237.8Z" transform="translate(-192.34 -16)"/><path class="cls-4" d="M458.56,310h-84.2A63.42,63.42,0,0,1,311,246.63v-84.2a63.42,63.42,0,0,1,63.35-63.35h84.2a63.42,63.42,0,0,1,63.35,63.35v84.2A63.42,63.42,0,0,1,458.56,310Zm-84.2-191.06a43.56,43.56,0,0,0-43.51,43.51v84.2a43.55,43.55,0,0,0,43.51,43.51h84.2a43.55,43.55,0,0,0,43.51-43.51v-84.2a43.56,43.56,0,0,0-43.51-43.51Z" transform="translate(-192.34 -16)"/></g></g></svg>