<svg xmlns="http://www.w3.org/2000/svg" xmlns:xlink="http://www.w3.org/1999/xlink" viewBox="0 0 528.64 554.49"><defs><style>.cls-1{isolation:isolate;}.cls-2{mix-blend-mode:multiply;opacity:0.8;fill:url(#radial-gradient);}.cls-3{fill:#010101;}.cls-4{fill:#fff;}</style><radialGradient id="radial-gradient" cx="264.32" cy="290.17" r="264.32" gradientUnits="userSpaceOnUse"><stop offset="0" stop-color="#1c1953"/><stop offset="0.37" stop-color="#7e7c9d" stop-opacity="0.57"/><stop offset="0.78" stop-color="#dcdbe4" stop-opacity="0.16"/><stop offset="1" stop-color="#fff" stop-opacity="0"/></radialGradient></defs><g class="cls-1"><g id="Layer_1" data-name="Layer 1"><circle class="cls-2" cx="264.32" cy="290.17" r="264.32"/><rect class="cls-3" x="238.5" y="26" width="359.51" height="359.51" rx="90.8" transform="translate(405.65 -238.5) rotate(90)"/><path class="cls-4" d="M342.87,172.28h34.82V284.11H342.87Zm17.41-55.58a20.16,20.16,0,1,1-20.18,20.14,20.15,20.15,0,0,1,20.18-20.14" transform="translate(-218.36 -26)"/><path class="cls-4" d="M399.5,172.28h33.34v15.29h.46c4.65-8.8,16-18.06,32.92-18.06,35.19,0,41.68,23.14,41.68,53.26v61.34H473.16V229.74c0-13-.25-29.66-18.06-29.66-18.1,0-20.86,14.13-20.86,28.71v55.32H399.5Z" transform="translate(-218.36 -26)"/></g></g></svg>