<svg xmlns="http://www.w3.org/2000/svg" xmlns:xlink="http://www.w3.org/1999/xlink" viewBox="0 0 482.73 150.54"><defs><style>.cls-1{fill:url(#Безымянный_градиент_33);}.cls-2{fill:url(#Безымянный_градиент_33-2);}.cls-3{fill:url(#Безымянный_градиент_33-3);}.cls-4{fill:url(#Безымянный_градиент_33-4);}.cls-5{fill:url(#Безымянный_градиент_33-5);}.cls-6{fill:url(#Безымянный_градиент_33-6);}.cls-7{fill:url(#Безымянный_градиент_33-7);}.cls-8{fill:url(#Безымянный_градиент_33-8);}.cls-9{fill:url(#linear-gradient);}</style><linearGradient id="Безымянный_градиент_33" x1="43.25" y1="191.08" x2="491.07" y2="191.08" gradientUnits="userSpaceOnUse"><stop offset="0" stop-color="#35a0ff"/><stop offset="1" stop-color="#390096"/></linearGradient><linearGradient id="Безымянный_градиент_33-2" x1="11.93" y1="209.81" x2="233.62" y2="209.81" xlink:href="#Безымянный_градиент_33"/><linearGradient id="Безымянный_градиент_33-3" x1="11.84" y1="214.7" x2="58.66" y2="214.7" xlink:href="#Безымянный_градиент_33"/><linearGradient id="Безымянный_градиент_33-4" x1="333.88" y1="230.03" x2="438.06" y2="230.03" xlink:href="#Безымянный_градиент_33"/><linearGradient id="Безымянный_градиент_33-5" x1="385.67" y1="209.53" x2="494.52" y2="255.38" xlink:href="#Безымянный_градиент_33"/><linearGradient id="Безымянный_градиент_33-6" x1="43.25" y1="171.35" x2="234.67" y2="171.35" xlink:href="#Безымянный_градиент_33"/><linearGradient id="Безымянный_градиент_33-7" x1="357.17" y1="212.25" x2="491.07" y2="212.25" xlink:href="#Безымянный_градиент_33"/><linearGradient id="Безымянный_градиент_33-8" x1="228.6" y1="224.38" x2="92.73" y2="208.91" xlink:href="#Безымянный_градиент_33"/><linearGradient id="linear-gradient" x1="18.89" y1="276.64" x2="368.2" y2="276.64" gradientTransform="matrix(1, 0, -0.27, 1, 77.62, 0)" gradientUnits="userSpaceOnUse"><stop offset="0" stop-color="#fff"/><stop offset="1" stop-color="#3835b5"/></linearGradient></defs><g id="OBJECTS"><path class="cls-1" d="M468,216.77c9.37,9.4,14.08,20.41-11.2,13.91s-47.67-19.51-47.67-19.51A48.8,48.8,0,0,1,427.51,209l.12,0,3.48.38c-.85-.38-1.83-.76-2.91-1.14a.37.37,0,0,1-.14,0c-23.45-8-95.06-13.24-122.63-8.08-21.67-14.8-67.77-43.51-121.4-41.49a137.64,137.64,0,0,0-19.86,2.17h0c-42.18,7.7-64.42,32.37-64.42,32.37-21.34,0-48.1-9.51-56.47-20.25,8.65,6.72,95.36-18.79,133.63-22,21.65-1.85,35.67-3,57.79,4.65,17,5.87,38.83,16.94,72.59,36.89,17.47-1.05,34.18-1.15,49.91-.56,79.45,2.92,133.9,22.92,133.9,22.92C481,217,468,216.77,468,216.77Z" transform="translate(-11.84 -149.53)"/><path class="cls-2" d="M233.62,215.38c-53.61,23.74-114.16,4.67-161.5-8l-.06,0c-24.52-6.52-45.48-11.32-60.13-7.58.91-.59,22.63-13.95,73.27-1.79,23.06,5.54,46.26,10.29,68.82,13.52C182.08,215.61,209.14,217.35,233.62,215.38Z" transform="translate(-11.84 -149.53)"/><path class="cls-3" d="M11.89,212.13c9.1-9.09,34.35-4.22,46.77,0C36.55,228.78,10.59,222.57,11.89,212.13Z" transform="translate(-11.84 -149.53)"/><path class="cls-4" d="M333.88,238.85C357.74,207,406.57,214.69,438.06,242,401.15,224.89,356.33,226.69,333.88,238.85Z" transform="translate(-11.84 -149.53)"/><path class="cls-5" d="M493.05,220.13c5.59,23.49-5.22,45.73-16,62.5,8.63-36.34,6.43-51.9,2.33-61.22A133.68,133.68,0,0,0,493.05,220.13Z" transform="translate(-11.84 -149.53)"/><path class="cls-6" d="M234.67,155.54c-29.32-5.75-46.15-2.08-70.5,5.26h0c-42.18,7.7-64.42,32.37-64.42,32.37-21.34,0-48.1-9.51-56.47-20.25,8.65,6.72,95.36-18.79,133.63-22C198.53,149,212.55,147.9,234.67,155.54Z" transform="translate(-11.84 -149.53)"/><path class="cls-7" d="M468,216.77c9.37,9.4,14.08,20.41-11.2,13.91s-47.67-19.51-47.67-19.51A48.8,48.8,0,0,1,427.51,209l.12,0,3.48.38-2.91-1.14a.37.37,0,0,1-.14,0,279.24,279.24,0,0,0-70.89-16.33c79.45,2.92,133.9,22.92,133.9,22.92C481,217,468,216.77,468,216.77Z" transform="translate(-11.84 -149.53)"/><path class="cls-8" d="M233.62,215.38c-53.61,23.74-114.16,4.67-161.5-8,30.5,8.13,30.84,2.21,81.9,4.13C182.08,215.61,209.14,217.35,233.62,215.38Z" transform="translate(-11.84 -149.53)"/></g><g id="TEXTS"><path class="cls-9" d="M28,254.3a89.6,89.6,0,0,1,12.86-1c8.51,0,14,2,17.05,5.72s4,9.06,2,16.48A33.17,33.17,0,0,1,48.49,293.4C43,297.69,35.34,300,26.42,300a92,92,0,0,1-10.62-.54Zm-5,40.59a34.76,34.76,0,0,0,5.9.34c12.67,0,21.45-7.08,24.79-19.48,3-10.82-1.28-17.7-13.81-17.7a36.39,36.39,0,0,0-7.12.61Z" transform="translate(-11.84 -149.53)"/><path class="cls-9" d="M97.5,278.07H79.66L75.2,294.62H95.08l-1.34,5H67.93l12.38-45.9H105.1l-1.34,5H84.89L81,273.17H98.82Z" transform="translate(-11.84 -149.53)"/><path class="cls-9" d="M129.07,258.73h-14l1.36-5h34l-1.36,5h-14l-11,40.86h-6Z" transform="translate(-11.84 -149.53)"/><path class="cls-9" d="M156.21,285.15l-8.66,14.44h-6.13l28-45.9h7.15l3.29,45.9h-6.34l-1-14.44Zm16.3-4.63-.94-13.21c-.21-3-.16-5.72-.12-8.38h-.14c-1.41,2.73-2.92,5.52-4.55,8.31l-8.08,13.28Z" transform="translate(-11.84 -149.53)"/><path class="cls-9" d="M211.68,253.69l-12.37,45.9h-5.93l12.38-45.9Z" transform="translate(-11.84 -149.53)"/><path class="cls-9" d="M228.84,253.69h5.93l-11,40.93h19.61l-1.34,5H216.47Z" transform="translate(-11.84 -149.53)"/><path class="cls-9" d="M273.73,253.69l-12.38,45.9h-5.92l12.37-45.9Z" transform="translate(-11.84 -149.53)"/><path class="cls-9" d="M278.52,299.59l12.37-45.9h6.47l8.45,23.22A98.2,98.2,0,0,1,310,291.83l.15-.07c1.11-6.13,2.48-11.71,4.41-18.87l5.17-19.2h5.59L313,299.59h-6l-8.29-23.29A107.68,107.68,0,0,1,294.24,261L294,261c-1.22,5.79-2.57,11.31-4.62,18.94l-5.29,19.61Z" transform="translate(-11.84 -149.53)"/><path class="cls-9" d="M365.62,297.55a49.39,49.39,0,0,1-14.77,2.52c-7,0-12.19-1.77-15.53-6.06-2.92-3.81-3.72-9.94-1.79-17.1a31.93,31.93,0,0,1,31.24-23.7c5.31,0,9.16,1.16,10.87,2.11l-2.73,4.84a20.22,20.22,0,0,0-9.61-2c-11.17,0-20.33,6.95-23.43,18.46s2,18.53,12.71,18.53a22,22,0,0,0,8.23-1.23l3.69-13.69h-9.33l1.29-4.77h15.11Z" transform="translate(-11.84 -149.53)"/></g></svg>