<svg xmlns="http://www.w3.org/2000/svg" xmlns:xlink="http://www.w3.org/1999/xlink" viewBox="0 0 517.34 544.03"><defs><style>.cls-1{isolation:isolate;}.cls-2{mix-blend-mode:multiply;opacity:0.8;fill:url(#radial-gradient);}.cls-3{fill:#010101;}.cls-4{fill:#fff;}</style><radialGradient id="radial-gradient" cx="258.67" cy="285.36" r="258.67" gradientUnits="userSpaceOnUse"><stop offset="0" stop-color="#1c1953"/><stop offset="0.37" stop-color="#7e7c9d" stop-opacity="0.57"/><stop offset="0.78" stop-color="#dcdbe4" stop-opacity="0.16"/><stop offset="1" stop-color="#fff" stop-opacity="0"/></radialGradient></defs><g class="cls-1"><g id="Layer_1" data-name="Layer 1"><circle class="cls-2" cx="258.67" cy="285.36" r="258.67"/><rect class="cls-3" x="238.04" y="25.97" width="360.2" height="360.2" rx="84.04" transform="translate(390.21 -238.04) rotate(90)"/><path class="cls-4" d="M517.65,144.36A81,81,0,0,1,497.79,150c3.19-.54,7.88-6.32,9.77-8.66a36.41,36.41,0,0,0,6.59-12c.17-.34.3-.78,0-1a1.13,1.13,0,0,0-1.06.08,101.24,101.24,0,0,1-23.55,9,1.57,1.57,0,0,1-1.62-.43,18.79,18.79,0,0,0-2.06-2.11,41.66,41.66,0,0,0-11.41-7,39.82,39.82,0,0,0-17.5-2.82,41.9,41.9,0,0,0-16.6,4.69,42.7,42.7,0,0,0-13.39,10.94,41.07,41.07,0,0,0-8,16,43.36,43.36,0,0,0-.43,16.91c.13.95.05,1.07-.81.95-32.35-4.82-59.16-16.39-80.93-41.2-.94-1.07-1.46-1.07-2.23.09-9.53,14.27-4.9,37.21,7,48.48a65.33,65.33,0,0,0,5,4.38c-.64.13-8.56-.73-15.62-4.38-.94-.59-1.42-.25-1.5.82a23.9,23.9,0,0,0,.26,4.64c1.82,14.47,11.85,27.86,25.57,33.08a24.54,24.54,0,0,0,5.19,1.59c-3.13.68-6.35,1.17-15.31.47-1.12-.22-1.55.34-1.12,1.41,6.74,18.37,21.29,23.84,32.18,27,1.46.26,2.92.26,4.38.6-.09.13-.17.13-.26.26-3.61,5.51-16.14,9.61-22,11.65a78.74,78.74,0,0,1-33.37,4.27c-1.8-.26-2.18-.24-2.66,0s-.06.73.51,1.2c2.28,1.5,4.59,2.83,6.95,4.12A110.34,110.34,0,0,0,352,281.93c40.09,11.07,85.26,2.93,115.37-27,23.64-23.49,31.93-55.89,31.93-88.32,0-1.27,1.5-2,2.39-2.65a78.16,78.16,0,0,0,15.7-16.32,5,5,0,0,0,1-3.13v-.17C518.46,143.84,518.45,144,517.65,144.36Z" transform="translate(-234 -25.97)"/></g></g></svg>